# xmcd
#
# Track frame offsets:
#	150
#	16804
#	31278
#	41595
#	53282
#	67474
#	84754
#	97526
#	108261
#	118461
#	128867
#	141435
#	152895
#
# Disc length: 2073 seconds
# Revision: 0
# Processed by: cddbd v1.5.2PL0 Copyright (c) Steve Scherf et al.
# Submitted via: dBpowerAMP V12.0
#
DISCID=a508170d
DTITLE=Larry Stephenson Band - 30
DYEAR=2019
DGENRE=Bluegrass
TTITLE0=Blue Memories
TTITLE1=Two Ol' Country Boys Like Us
TTITLE2=Who Are They?
TTITLE3=Tears
TTITLE4=Two Hearts on the Borderline
TTITLE5=Just When I Needed You Most
TTITLE6=Timber, I'm Falling In Love
TTITLE7=Darling Little Joe
TTITLE8=Sweet Little Miss Blue Eyes
TTITLE9=Journey's End
TTITLE10=Love Lifted Me
TTITLE11=I Was Bluegrass (When Bluegrass Wasn't Cool)
TTITLE12=Two Ol' Country Boys Like Us (Bonus Track)
EXTD=
EXTT0=
EXTT1=
EXTT2=
EXTT3=
EXTT4=
EXTT5=
EXTT6=
EXTT7=
EXTT8=
EXTT9=
EXTT10=
EXTT11=
EXTT12=
PLAYORDER=
